<svg id="Capa_1" enable-background="new 0 0 511.976 511.976" height="512" viewBox="0 0 511.976 511.976" width="512" xmlns="http://www.w3.org/2000/svg"><g><g><path d="m448.658 421.697c-9.346-.473-18.056 2.155-25.194 6.944-1.256.842-2.735 1.285-4.247 1.285-2.499 0-4.87-1.192-6.285-3.252-8.956-13.04-23.961-21.598-40.977-21.598-8.028 0-15.612 1.904-22.324 5.284h-187.286c-6.712-3.38-14.296-5.284-22.324-5.284-17.015 0-32.021 8.558-40.977 21.598-1.414 2.06-3.786 3.252-6.285 3.252-1.512 0-2.992-.443-4.248-1.285-7.139-4.789-15.848-7.417-25.194-6.944-20.732 1.05-37.711 17.674-39.159 38.383-1.694 24.221 17.453 44.396 41.312 44.396h381.033c23.859 0 43.006-20.175 41.312-44.396-1.447-20.708-18.425-37.333-39.157-38.383z" fill="#ffe07d"/><g><path d="m335.049 438.209h-158.122c-10.497 0-18.348-9.638-16.224-19.918l9.574-46.349v-5h171.422v5l9.574 46.349c2.124 10.28-5.727 19.918-16.224 19.918z" fill="#817d84"/><path d="m351.273 418.291-9.574-46.349v-5h-23v5l9.574 46.349c2.124 10.28-5.727 19.918-16.224 19.918h23c10.497 0 18.348-9.638 16.224-19.918z" fill="#756e79"/></g><path d="m351.085 255.976 51.314 78.709c1.755 2.691 2.689 5.835 2.689 9.048v11.643c0 9.15-7.417 16.567-16.567 16.567h-265.066c-9.15 0-16.567-7.417-16.567-16.567v-11.643c0-3.213.934-6.356 2.689-9.048l51.314-78.709z" fill="#e27f84"/><path d="m402.399 334.685-51.314-78.709h-23l51.314 78.709c1.755 2.691 2.689 5.835 2.689 9.048v11.643c0 9.15-7.417 16.567-16.567 16.567h23c9.15 0 16.567-7.417 16.567-16.567v-11.643c0-3.213-.934-6.357-2.689-9.048z" fill="#c9646d"/><path d="m346.509 125.855c-3.683-13.252-8.381-25.922-13.97-37.88h-153.103c-5.589 11.958-10.287 24.628-13.97 37.88-8.018 28.854-10.451 58.959-7.922 88.788l12.732 157.299h171.422l12.732-157.299c2.531-29.828.098-59.934-7.921-88.788z" fill="#d8e2f3"/><path d="m332.539 87.976h-23c5.589 11.958 10.287 24.628 13.97 37.88 8.018 28.854 10.451 58.959 7.922 88.788l-12.732 157.299h23l12.732-157.299c2.53-29.829.097-59.934-7.922-88.788-3.682-13.252-8.381-25.922-13.97-37.88z" fill="#d8e2f3"/><g><ellipse cx="255.988" cy="189.709" fill="#a2abb8" rx="66.267" ry="66.267" transform="matrix(.707 -.707 .707 .707 -59.168 236.575)"/><ellipse cx="255.988" cy="189.709" fill="#817d84" rx="66.267" ry="66.267" transform="matrix(.707 -.707 .707 .707 -59.168 236.575)"/><path d="m255.988 123.443c-3.925 0-7.763.361-11.5 1.015 31.113 5.447 54.767 32.578 54.767 65.252 0 32.673-23.654 59.804-54.767 65.252 3.737.654 7.575 1.015 11.5 1.015 36.598 0 66.267-29.669 66.267-66.267 0-36.599-29.669-66.267-66.267-66.267z" fill="#756e79"/><ellipse cx="255.988" cy="189.709" fill="#c9dbfd" rx="33.133" ry="33.133" transform="matrix(.144 -.99 .99 .144 31.365 415.683)"/><ellipse cx="255.988" cy="189.709" fill="#c9dbfd" rx="33.133" ry="33.133" transform="matrix(.144 -.99 .99 .144 31.365 415.683)"/><path d="m255.988 156.576c-4.044 0-7.917.727-11.5 2.053 12.63 4.675 21.633 16.825 21.633 31.08s-9.004 26.406-21.633 31.08c3.583 1.326 7.456 2.053 11.5 2.053 18.299 0 33.133-14.834 33.133-33.133s-14.834-33.133-33.133-33.133z" fill="#aecafc"/></g><path d="m272.555 305.676c0-9.15-7.417-16.567-16.567-16.567s-16.567 7.417-16.567 16.567v16.567c0 9.15 7.417 16.567 16.567 16.567s16.567-7.417 16.567-16.567z" fill="#e27f84"/><path d="m333.613 90.309c-13.807-30.404-33.363-56.308-56.863-75.462-12.058-9.828-29.467-9.828-41.525 0-23.5 19.154-43.055 45.058-56.863 75.462z" fill="#e27f84"/><path d="m276.75 14.847c-9.221-7.515-21.569-9.276-32.262-5.298 3.29 1.224 6.425 2.985 9.262 5.298 23.5 19.154 43.055 45.058 56.863 75.462h23c-13.808-30.404-33.363-56.308-56.863-75.462z" fill="#c9646d"/><path d="m487.817 460.08c-1.448-20.708-18.427-37.333-39.159-38.383-4.762-.241-9.358.327-13.666 1.572 16.292 4.736 28.602 19.315 29.825 36.811 1.694 24.221-17.453 44.396-41.312 44.396h23c23.859 0 43.006-20.175 41.312-44.396z" fill="#f1cb86"/></g><g><path d="m255.988 149.076c-22.405 0-40.633 18.228-40.633 40.633s18.228 40.633 40.633 40.633 40.633-18.228 40.633-40.633-18.228-40.633-40.633-40.633zm0 66.267c-14.134 0-25.633-11.499-25.633-25.633s11.499-25.633 25.633-25.633 25.633 11.499 25.633 25.633-11.499 25.633-25.633 25.633z"/><path d="m329.755 189.709c0-40.675-33.092-73.767-73.767-73.767s-73.767 33.092-73.767 73.767 33.092 73.767 73.767 73.767 73.767-33.092 73.767-73.767zm-73.767 58.767c-32.404 0-58.767-26.363-58.767-58.767s26.363-58.767 58.767-58.767 58.767 26.363 58.767 58.767-26.363 58.767-58.767 58.767z"/><path d="m231.921 305.676v16.566c0 13.27 10.796 24.067 24.067 24.067s24.067-10.796 24.067-24.067v-16.566c0-13.271-10.796-24.067-24.067-24.067s-24.067 10.797-24.067 24.067zm33.134 0v16.566c0 4.999-4.067 9.067-9.067 9.067s-9.067-4.067-9.067-9.067v-16.566c0-5 4.067-9.067 9.067-9.067 4.999 0 9.067 4.068 9.067 9.067z"/><path d="m446.505 414.142c-9.897 0-19.342 2.925-27.359 8.356-10.317-15.036-27.618-24.923-47.191-24.923-5.775 0-11.389.846-16.785 2.505l-4.263-20.638h37.615c13.27 0 24.067-10.796 24.067-24.067v-11.643c0-4.68-1.351-9.225-3.906-13.144l-49.914-76.563 3.136-38.749c2.675-31.538-.073-62.299-8.168-91.43-12.959-46.626-38.616-87.4-72.249-114.813-14.775-12.044-36.226-12.044-51.001 0-32.776 26.715-58.101 66.321-71.308 111.52-.32 1.094-.632 2.191-.938 3.293-1.11 3.991 1.226 8.125 5.216 9.235 3.993 1.109 8.126-1.226 9.235-5.216.289-1.037.584-2.071.885-3.103 2.707-9.264 5.952-18.272 9.688-26.952h145.44c4.147 9.642 7.698 19.688 10.579 30.054 7.616 27.407 10.198 56.391 7.672 86.175l-12.174 150.405h-157.588l-12.176-150.434c-1.729-20.394-1.041-40.642 2.045-60.18.646-4.091-2.146-7.932-6.238-8.579-4.089-.641-7.932 2.147-8.579 6.238-3.275 20.73-4.007 42.191-2.178 63.759l3.139 38.778-49.914 76.563c-2.556 3.919-3.906 8.464-3.906 13.144v11.643c0 13.271 10.796 24.067 24.067 24.067h37.615l-4.263 20.638c-5.396-1.659-11.01-2.505-16.785-2.505-19.573 0-36.874 9.886-47.191 24.923-8.016-5.432-17.462-8.356-27.359-8.356-26.973 0-48.916 21.944-48.916 48.917s21.944 48.916 48.916 48.916h9.85c4.142 0 7.5-3.358 7.5-7.5s-3.358-7.5-7.5-7.5h-9.85c-18.702 0-33.916-15.215-33.916-33.916 0-18.702 15.215-33.917 33.916-33.917 7.51 0 14.643 2.431 20.514 6.909-2.04 5.871-3.164 12.167-3.164 18.724 0 4.142 3.358 7.5 7.5 7.5s7.5-3.358 7.5-7.5c0-23.269 18.931-42.2 42.2-42.2 4.748 0 9.343.779 13.73 2.293l-.394 1.905c-1.471 7.118.318 14.432 4.908 20.067 4.59 5.636 11.392 8.868 18.66 8.868h5.295v25.633c0 4.142 3.358 7.5 7.5 7.5s7.5-3.358 7.5-7.5v-25.633h117.533v25.633c0 4.142 3.358 7.5 7.5 7.5s7.5-3.358 7.5-7.5v-25.633h5.295c7.268 0 14.069-3.232 18.66-8.868 4.59-5.635 6.38-12.95 4.909-20.067l-.394-1.906c4.387-1.514 8.982-2.293 13.73-2.293 23.269 0 42.2 18.931 42.2 42.2 0 4.142 3.358 7.5 7.5 7.5s7.5-3.358 7.5-7.5c0-6.557-1.123-12.853-3.164-18.724 5.871-4.478 13.004-6.909 20.514-6.909 18.702 0 33.916 15.215 33.916 33.917s-15.215 33.916-33.916 33.916h-341.182c-4.142 0-7.5 3.358-7.5 7.5s3.358 7.5 7.5 7.5h341.184c26.973 0 48.916-21.944 48.916-48.916s-21.944-48.917-48.916-48.917zm-206.541-393.482c9.285-7.568 22.762-7.568 32.048 0 10.289 8.386 19.774 18.147 28.311 29.016h-88.662c8.542-10.88 18.03-20.642 28.303-29.016zm-49.581 62.149c3.26-6.269 6.791-12.321 10.565-18.133h110.096c3.773 5.81 7.294 11.866 10.552 18.133zm73.105 314.767v-18.133h26.417v18.133zm-41.417 0v-18.133h26.417v18.133zm-49.431 0 3.746-18.133h30.686v18.133zm132.264-18.133h30.686l3.746 18.133h-34.432zm91.212-40.662c.963 1.477 1.472 3.189 1.472 4.952v11.643c0 5-4.067 9.067-9.067 9.067h-38.691l6.96-85.984zm-281.728 16.595v-11.643c0-1.763.509-3.475 1.472-4.952l39.326-60.322 6.96 85.984h-38.691c-5 0-9.067-4.068-9.067-9.067zm227.691 71.992c-1.729 2.123-4.291 3.341-7.03 3.341h-158.123c-2.738 0-5.3-1.218-7.03-3.341-1.729-2.123-2.403-4.878-1.849-7.56l1.494-7.232h172.893l1.494 7.232c.555 2.682-.12 5.437-1.849 7.56z"/></g></g></svg>